<?xml version="1.0" encoding="UTF-8" standalone="no"?>

<svg
   xmlns:dc="http://purl.org/dc/elements/1.1/"
   xmlns:cc="http://creativecommons.org/ns#"
   xmlns:rdf="http://www.w3.org/1999/02/22-rdf-syntax-ns#"
   xmlns:svg="http://www.w3.org/2000/svg"
   xmlns="http://www.w3.org/2000/svg"
   xmlns:sodipodi="http://sodipodi.sourceforge.net/DTD/sodipodi-0.dtd"
   xmlns:inkscape="http://www.inkscape.org/namespaces/inkscape"
   width="1024pt"
   height="1024pt"
   viewBox="0 0 361.24445 361.24444"
   version="1.1"
   id="svg8"
   inkscape:version="0.92.2 (5c3e80d, 2017-08-06)"
   sodipodi:docname="logo.svg"
   inkscape:export-filename="D:\projects\dynamicprocess\images\logo1024.png"
   inkscape:export-xdpi="72"
   inkscape:export-ydpi="72">
  <defs
     id="defs2" />
  <sodipodi:namedview
     id="base"
     pagecolor="#ffffff"
     bordercolor="#666666"
     borderopacity="1.0"
     inkscape:pageopacity="0.0"
     inkscape:pageshadow="2"
     inkscape:zoom="0.35"
     inkscape:cx="331.61813"
     inkscape:cy="664.40369"
     inkscape:document-units="pt"
     inkscape:current-layer="layer4"
     showgrid="false"
     units="pt"
     showguides="true"
     inkscape:guide-bbox="true"
     inkscape:window-width="1366"
     inkscape:window-height="745"
     inkscape:window-x="-8"
     inkscape:window-y="-8"
     inkscape:window-maximized="1">
    <sodipodi:guide
       position="180.62304,180.61946"
       orientation="1,0"
       id="guide920"
       inkscape:locked="false" />
    <sodipodi:guide
       position="180.62304,180.61946"
       orientation="0,1"
       id="guide922"
       inkscape:locked="false" />
    <sodipodi:guide
       position="8.6934523,180.61946"
       orientation="1,0"
       id="guide932"
       inkscape:locked="false" />
    <sodipodi:guide
       position="180.62304,8.8365984"
       orientation="0,1"
       id="guide934"
       inkscape:locked="false" />
    <sodipodi:guide
       position="180.62304,352.41554"
       orientation="0,1"
       id="guide936"
       inkscape:locked="false" />
    <sodipodi:guide
       position="352.41992,180.61946"
       orientation="1,0"
       id="guide938"
       inkscape:locked="false" />
    <sodipodi:guide
       position="172.78975,264.73046"
       orientation="1,0"
       id="guide1028"
       inkscape:locked="false" />
    <sodipodi:guide
       position="187.69002,264.66364"
       orientation="1,0"
       id="guide1030"
       inkscape:locked="false" />
    <sodipodi:guide
       position="-223.00595,232.26636"
       orientation="1,0"
       id="guide4533"
       inkscape:locked="false" />
  </sodipodi:namedview>
  <metadata
     id="metadata5">
    <rdf:RDF>
      <cc:Work
         rdf:about="">
        <dc:format>image/svg+xml</dc:format>
        <dc:type
           rdf:resource="http://purl.org/dc/dcmitype/StillImage" />
        <dc:title />
      </cc:Work>
    </rdf:RDF>
  </metadata>
  <g
     inkscape:groupmode="layer"
     id="layer4"
     inkscape:label="rueda">
    <path
       style="display:inline;opacity:1;fill:none;fill-opacity:1;stroke:#ff0000;stroke-width:3.58463621;stroke-linecap:round;stroke-linejoin:round;stroke-miterlimit:4;stroke-dasharray:none;stroke-opacity:1"
       d="m 174.674,132.89494 c -0.40557,0 -0.73226,0.32646 -0.73226,0.73203 v 7.98738 a 39.454279,39.454279 0 0 0 -15.87286,6.62978 l -5.68676,-5.68676 c -0.28678,-0.28678 -0.74861,-0.28678 -1.03539,0 l -8.59338,8.59339 c -0.28679,0.28678 -0.28679,0.74837 0,1.03515 l 5.67864,5.67865 a 39.454279,39.454279 0 0 0 -6.52428,15.8812 h -8.08476 c -0.40558,0 -0.73204,0.32646 -0.73204,0.73203 v 12.1528 c 0,0.40557 0.32646,0.73227 0.73204,0.73227 h 8.08141 a 39.454279,39.454279 0 0 0 6.63169,15.77714 l -5.7827,5.7827 c -0.28679,0.28679 -0.28679,0.74837 0,1.03516 l 8.59338,8.59338 c 0.28678,0.28678 0.74861,0.28678 1.03539,0 l 5.78963,-5.78963 a 39.454279,39.454279 0 0 0 15.76999,6.53598 v 8.18406 c 0,0.40556 0.32669,0.73202 0.73226,0.73202 h 12.15281 c 0.40556,0 0.73202,-0.32646 0.73202,-0.73202 v -8.15279 a 39.454279,39.454279 0 0 0 15.7726,-6.56487 l 5.78725,5.78725 c 0.28678,0.28678 0.74836,0.28678 1.03515,0 l 8.59339,-8.59338 c 0.28678,-0.28679 0.28678,-0.74837 0,-1.03516 l -5.75646,-5.75645 a 39.454279,39.454279 0 0 0 6.56391,-15.80339 h 8.12295 c 0.40557,0 0.73203,-0.3267 0.73203,-0.73227 v -12.1528 c 0,-0.40557 -0.32646,-0.73203 -0.73203,-0.73203 h -8.05875 a 39.454279,39.454279 0 0 0 -6.59159,-15.83991 l 5.71994,-5.71994 c 0.28678,-0.28678 0.28678,-0.74837 0,-1.03515 l -8.59339,-8.59339 c -0.28679,-0.28678 -0.74837,-0.28678 -1.03515,0 l -5.69607,5.69607 a 39.454279,39.454279 0 0 0 -15.86378,-6.60281 v -8.02366 c 0,-0.40557 -0.32646,-0.73203 -0.73202,-0.73203 z"
       id="path839"
       inkscape:connector-curvature="0" />
  </g>
  <g
     inkscape:groupmode="layer"
     id="layer2"
     inkscape:label="mesa"
     style="display:inline">
    <path
       style="fill:#ffff00;fill-opacity:1;stroke:none;stroke-width:0.26458332px;stroke-linecap:butt;stroke-linejoin:miter;stroke-opacity:1"
       d="m 195.0984,80.597119 c 0,0 44.04934,1.286209 68.01087,35.907711 23.96153,34.62153 20.22171,58.82845 20.22171,58.82845 l -11.52826,13.93196 -11.15029,-13.93196 c 0,0 -2.36229,-27.21235 -19.46578,-48.24512 -17.10348,-21.03277 -46.08825,-23.8125 -46.08825,-23.8125 l 13.01533,-10.205327 z"
       id="path845"
       inkscape:connector-curvature="0"
       sodipodi:nodetypes="czccczccc" />
    <path
       style="display:inline;fill:#ffff00;stroke:none;stroke-width:0.26458332px;stroke-linecap:butt;stroke-linejoin:miter;stroke-opacity:1;fill-opacity:1"
       d="m 282.5365,197.55117 c 0,0 -2.95356,43.96902 -38.45774,66.60215 -35.50419,22.63312 -59.55209,17.9792 -59.55209,17.9792 l -13.48537,-12.04763 14.34427,-10.61465 c 0,0 27.28229,-1.32999 48.94772,-17.62464 21.66544,-16.29464 25.54091,-45.15334 25.54091,-45.15334 l 9.70511,13.3925 z"
       id="path845-2"
       inkscape:connector-curvature="0"
       sodipodi:nodetypes="czccczccc" />
    <path
       style="display:inline;fill:#ffff00;fill-opacity:1;stroke:none;stroke-width:0.26458332px;stroke-linecap:butt;stroke-linejoin:miter;stroke-opacity:1"
       d="m 166.47733,280.74162 c 0,0 -44.05652,-1.01054 -68.234248,-35.48143 -24.1777,-34.47091 -20.589435,-58.70076 -20.589435,-58.70076 l 11.440852,-14.00382 11.237231,13.8619 c 0,0 2.53253,27.19703 19.7673,48.12237 17.23478,20.92532 46.23637,23.52361 46.23637,23.52361 l -12.9512,10.2866 z"
       id="path845-8"
       inkscape:connector-curvature="0"
       sodipodi:nodetypes="czccczccc" />
    <path
       style="display:inline;fill:#ffff00;stroke:none;stroke-width:0.26458332px;stroke-linecap:butt;stroke-linejoin:miter;stroke-opacity:1;fill-opacity:1"
       d="m 78.381931,163.28175 c 0,0 2.67835,-43.98664 38.040169,-66.841479 35.36185,-22.854848 59.43841,-18.351503 59.43841,-18.351503 l 13.5605,11.963002 -14.27757,10.70415 c 0,0 -27.27342,1.50071 -48.83647,17.93062 -21.56304,16.4299 -25.25783,45.31229 -25.25783,45.31229 l -9.788713,-13.3315 z"
       id="path845-2-4"
       inkscape:connector-curvature="0"
       sodipodi:nodetypes="czccczccc" />
  </g>
  <g
     inkscape:label="personas"
     inkscape:groupmode="layer"
     id="layer1"
     transform="translate(0,64.24444)">
    <path
       style="fill:none;stroke:#ffffff;stroke-width:17.87324333;stroke-linecap:round;stroke-linejoin:miter;stroke-miterlimit:4;stroke-dasharray:none;stroke-opacity:1"
       d="m 31.810512,105.15523 c 0,0 17.488603,-27.623379 42.992759,-27.623379 25.504159,0 35.931149,20.76945 35.931149,20.76945"
       id="path848"
       inkscape:connector-curvature="0"
       sodipodi:nodetypes="czc" />
    <circle
       style="opacity:1;fill:#ffffff;fill-opacity:1;stroke:#ffffff;stroke-width:0.93251711;stroke-linecap:round;stroke-miterlimit:4;stroke-dasharray:none;stroke-opacity:1"
       id="path815"
       cx="39.245586"
       cy="116.19151"
       r="29.959885" />
    <path
       style="fill:none;stroke:#ffffff;stroke-width:17.87324333;stroke-linecap:round;stroke-linejoin:miter;stroke-miterlimit:4;stroke-dasharray:none;stroke-opacity:1"
       d="m 31.810861,127.5292 c 0,0 17.488604,27.62337 42.992759,27.62337 25.50416,0 35.93115,-20.76945 35.93115,-20.76945"
       id="path848-0"
       inkscape:connector-curvature="0"
       sodipodi:nodetypes="czc" />
    <path
       style="fill:none;stroke:#ffffff;stroke-width:17.87324333;stroke-linecap:round;stroke-linejoin:miter;stroke-miterlimit:4;stroke-dasharray:none;stroke-opacity:1"
       d="m 329.51085,105.15524 c 0,0 -17.4886,-27.623375 -42.99276,-27.623375 -25.50415,0 -35.93115,20.76945 -35.93115,20.76945"
       id="path848-6"
       inkscape:connector-curvature="0"
       sodipodi:nodetypes="czc" />
    <circle
       style="opacity:1;fill:#ffffff;fill-opacity:1;stroke:#ffffff;stroke-width:0.93251711;stroke-linecap:round;stroke-miterlimit:4;stroke-dasharray:none;stroke-opacity:1"
       id="path815-0"
       cx="-322.07578"
       cy="116.19153"
       r="29.959885"
       transform="scale(-1,1)" />
    <path
       style="fill:none;stroke:#ffffff;stroke-width:17.87324333;stroke-linecap:round;stroke-linejoin:miter;stroke-miterlimit:4;stroke-dasharray:none;stroke-opacity:1"
       d="m 329.5105,127.52921 c 0,0 -17.4886,27.62337 -42.99276,27.62337 -25.50416,0 -35.93115,-20.76944 -35.93115,-20.76944"
       id="path848-0-8"
       inkscape:connector-curvature="0"
       sodipodi:nodetypes="czc" />
    <path
       style="fill:none;stroke:#ffffff;stroke-width:17.87324333;stroke-linecap:round;stroke-linejoin:miter;stroke-miterlimit:4;stroke-dasharray:none;stroke-opacity:1"
       d="m 169.44785,265.27207 c 0,0 -27.62337,-17.4886 -27.62337,-42.99276 0,-25.50415 20.76945,-35.93115 20.76945,-35.93115"
       id="path848-4"
       inkscape:connector-curvature="0"
       sodipodi:nodetypes="czc" />
    <circle
       style="opacity:1;fill:#ffffff;fill-opacity:1;stroke:#ffffff;stroke-width:0.93251711;stroke-linecap:round;stroke-miterlimit:4;stroke-dasharray:none;stroke-opacity:1"
       id="path815-3"
       cx="-257.83701"
       cy="180.48415"
       r="29.959885"
       transform="rotate(-90)" />
    <path
       style="fill:none;stroke:#ffffff;stroke-width:17.87324333;stroke-linecap:round;stroke-linejoin:miter;stroke-miterlimit:4;stroke-dasharray:none;stroke-opacity:1"
       d="m 191.82183,265.27172 c 0,0 27.62337,-17.4886 27.62337,-42.99276 0,-25.50416 -20.76945,-35.93115 -20.76945,-35.93115"
       id="path848-0-5"
       inkscape:connector-curvature="0"
       sodipodi:nodetypes="czc" />
    <path
       style="fill:none;stroke:#ffffff;stroke-width:17.87324333;stroke-linecap:round;stroke-linejoin:miter;stroke-miterlimit:4;stroke-dasharray:none;stroke-opacity:1"
       d="m 169.44786,-32.428281 c 0,0 -27.62338,17.488603 -27.62338,42.992758 0,25.504156 20.76945,35.931149 20.76945,35.931149"
       id="path848-6-9"
       inkscape:connector-curvature="0"
       sodipodi:nodetypes="czc" />
    <circle
       style="opacity:1;fill:#ffffff;fill-opacity:1;stroke:#ffffff;stroke-width:0.93251711;stroke-linecap:round;stroke-miterlimit:4;stroke-dasharray:none;stroke-opacity:1"
       id="path815-0-6"
       cx="-24.993206"
       cy="180.48415"
       r="29.959885"
       transform="matrix(0,1,1,0,0,0)" />
    <path
       style="fill:none;stroke:#ffffff;stroke-width:17.87324333;stroke-linecap:round;stroke-linejoin:miter;stroke-miterlimit:4;stroke-dasharray:none;stroke-opacity:1"
       d="m 191.82183,-32.427932 c 0,0 27.62337,17.488604 27.62337,42.992759 0,25.504163 -20.76944,35.931149 -20.76944,35.931149"
       id="path848-0-8-6"
       inkscape:connector-curvature="0"
       sodipodi:nodetypes="czc" />
  </g>
</svg>
